<svg width="24" height="24" viewBox="0 0 24 24" fill="none" xmlns="http://www.w3.org/2000/svg">
<path d="M12.0003 1.99951C10.0224 1.99951 8.08904 2.586 6.44455 3.68482C4.80006 4.78363 3.51833 6.34542 2.76145 8.17268C2.00458 9.99994 1.80654 12.0106 2.1924 13.9504C2.57825 15.8902 3.53066 17.6721 4.92918 19.0706C6.32771 20.4691 8.10954 21.4215 10.0493 21.8074C11.9892 22.1932 13.9998 21.9952 15.8271 21.2383C17.6544 20.4814 19.2161 19.1997 20.315 17.5552C21.4138 15.9107 22.0003 13.9773 22.0003 11.9995C22.0003 10.6863 21.7416 9.38594 21.2391 8.17268C20.7365 6.95942 19.9999 5.85703 19.0713 4.92844C18.1427 3.99986 17.0403 3.26326 15.8271 2.76072C14.6138 2.25817 13.3135 1.99951 12.0003 1.99951ZM12.0003 19.9995C10.418 19.9995 8.87128 19.5303 7.55569 18.6513C6.2401 17.7722 5.21472 16.5228 4.60921 15.061C4.00371 13.5992 3.84529 11.9906 4.15397 10.4388C4.46265 8.88694 5.22458 7.46148 6.3434 6.34266C7.46222 5.22384 8.88768 4.46191 10.4395 4.15323C11.9914 3.84455 13.5999 4.00298 15.0617 4.60848C16.5235 5.21398 17.773 6.23936 18.652 7.55495C19.5311 8.87055 20.0003 10.4173 20.0003 11.9995C20.0003 14.1212 19.1574 16.1561 17.6571 17.6564C16.1568 19.1567 14.122 19.9995 12.0003 19.9995Z" fill="#D4AF37"/>
<path d="M14.7101 9.29018C14.6171 9.19645 14.5065 9.12206 14.3846 9.07129C14.2628 9.02052 14.1321 8.99438 14.0001 8.99438C13.868 8.99438 13.7373 9.02052 13.6155 9.07129C13.4936 9.12206 13.383 9.19645 13.2901 9.29018L12.0001 10.5902L10.7101 9.29018C10.5218 9.10188 10.2664 8.99609 10.0001 8.99609C9.73376 8.99609 9.47836 9.10188 9.29006 9.29018C9.10176 9.47849 8.99597 9.73388 8.99597 10.0002C8.99597 10.2665 9.10176 10.5219 9.29006 10.7102L10.5901 12.0002L9.29006 13.2902C9.19633 13.3831 9.12194 13.4937 9.07117 13.6156C9.0204 13.7375 8.99426 13.8682 8.99426 14.0002C8.99426 14.1322 9.0204 14.2629 9.07117 14.3848C9.12194 14.5066 9.19633 14.6172 9.29006 14.7102C9.38302 14.8039 9.49362 14.8783 9.61548 14.9291C9.73734 14.9798 9.86805 15.006 10.0001 15.006C10.1321 15.006 10.2628 14.9798 10.3846 14.9291C10.5065 14.8783 10.6171 14.8039 10.7101 14.7102L12.0001 13.4102L13.2901 14.7102C13.383 14.8039 13.4936 14.8783 13.6155 14.9291C13.7373 14.9798 13.868 15.006 14.0001 15.006C14.1321 15.006 14.2628 14.9798 14.3846 14.9291C14.5065 14.8783 14.6171 14.8039 14.7101 14.7102C14.8038 14.6172 14.8782 14.5066 14.929 14.3848C14.9797 14.2629 15.0059 14.1322 15.0059 14.0002C15.0059 13.8682 14.9797 13.7375 14.929 13.6156C14.8782 13.4937 14.8038 13.3831 14.7101 13.2902L13.4101 12.0002L14.7101 10.7102C14.8038 10.6172 14.8782 10.5066 14.929 10.3848C14.9797 10.2629 15.0059 10.1322 15.0059 10.0002C15.0059 9.86817 14.9797 9.73747 14.929 9.61561C14.8782 9.49375 14.8038 9.38315 14.7101 9.29018Z" fill="#D4AF37"/>
</svg>
