<svg width="70" height="69" viewBox="0 0 70 69" fill="none" xmlns="http://www.w3.org/2000/svg">
<g style="mix-blend-mode:multiply" opacity="0.3">
<path d="M66.6 51.5998C65 57.4998 61.9 62.3998 55.3 64.5998C44.4 68.0998 32.9 69.0999 21 68.4999C14.7 68.2999 9.79998 65.1998 7.29998 58.5998C3.89998 49.8998 2.40001 42.5999 1.20001 33.3999C0.400008 24.7999 -0.199998 20.8999 2.6 15.4999C5.7 9.69985 11.7 7.79983 17 6.09983C26.8 3.19983 44.1 0.499878 51.9 0.899878C57.7 1.29988 63.3 2.09984 67 7.29984C70.1 11.6998 69.5 17.3998 69.4 22.5998C69.3 27.7998 69.1 33.0999 68.5 38.3999C68.1 42.7999 67.7 47.3998 66.6 51.5998Z" fill="#12102C"/>
</g>
<path d="M67.1 49.4C65.6 54.9 62.7 59.4999 56.2 61.4999C45.8 64.6999 34.7 65.5999 23.2 64.9999C17.2 64.6999 12.4 61.8 9.99999 55.7C6.69999 47.5 5.19999 40.6999 3.99999 32.0999C3.19999 23.9999 2.59998 20.4 5.29998 15.4C8.19998 9.99997 14 8.19996 19.2 6.69996C28.5 3.89996 45.2 1.49995 52.7 1.99995C58.3 2.29995 63.8 3.09995 67.3 7.99995C70.3 12.0999 69.8 17.3999 69.7 22.2999C69.6 27.1999 69.4 32.0999 68.9 37.0999C68.5 41.1999 68.2 45.5 67.1 49.4Z" fill="url(#paint0_linear_9_8974)"/>
<path d="M67.3 47.5998C65.8 52.9998 62.9 57.4998 56.4 59.3998C45.8 62.4998 34.6 63.3998 23.1 62.7998C17 62.4998 12.2 59.5998 9.7 53.5998C6.3 45.4998 4.79999 38.7998 3.49999 30.3998C2.69999 22.3998 2.09998 18.7998 4.79998 13.8998C7.69998 8.59983 13.6 6.89983 18.8 5.39983C28.2 2.69983 45 0.399834 52.6 0.899834C58.3 1.19983 63.7 1.99983 67.4 6.89983C70.4 10.8998 69.9 16.1998 69.8 20.8998C69.7 25.7998 69.6 30.5998 69.1 35.3998C68.7 39.4998 68.3 43.7998 67.3 47.5998Z" fill="url(#paint1_linear_9_8974)"/>
<path style="mix-blend-mode:screen" d="M9 51.2002C9.2 51.7335 9.43335 52.2668 9.70001 52.8002C12.2 58.8002 17 61.7002 23.1 62.1002C34.6 62.7002 45.8 61.8002 56.4 58.7002C62.9 56.7002 65.8 52.2002 67.3 46.8002C67.5 46.0002 67.7 45.1335 67.9 44.2002C67.9 44.2669 67.9333 44.3335 68 44.4002C67.8 45.4669 67.5667 46.5335 67.3 47.6002C65.8 53.0002 62.9 57.5002 56.4 59.4002C45.8 62.5002 34.6 63.4002 23.1 62.8002C17 62.5002 12.2 59.6002 9.70001 53.6002C9.43335 53.0002 9.16666 52.4002 8.89999 51.8002C8.96666 51.6002 9 51.4002 9 51.2002Z" fill="url(#paint2_radial_9_8974)"/>
<path d="M27.7 58.6002C30.5 58.6002 33.7 58.5002 35.7 58.3002C37.7 58.3002 39.9 58.1002 42.5 57.7002C46.9 57.2002 51.1 56.3002 55.1 55.1002C59.2 53.9002 61.6 51.3002 62.9 46.4002C63.8 43.3002 64.2 39.7002 64.5 36.2002C65.1 28.1002 65.8 17.2002 65.5 14.9002C65.3 12.5002 64.7 10.8002 63.8 9.50018C61.5 6.50018 58 5.70017 52.3 5.30017C50.7 5.2335 49.1 5.2002 47.5 5.2002C38.9 5.2002 29.8 6.60018 19.9 9.50018C16.8 10.4002 15.1 11.1002 12.9 12.2002C6.1 15.7002 6.90001 21.7002 7.60001 26.6002C7.66668 27.2668 7.73333 27.9335 7.8 28.6002L7.9 28.7002C8 29.3002 10.6 44.0002 13.8 51.9002C15.5 56.0002 18.6 58.1002 23.3 58.4002C24.2 58.5002 25.7 58.6002 27.7 58.6002Z" fill="url(#paint3_radial_9_8974)"/>
<path d="M35.6 56.9002C37.9 56.8002 40.1 56.5002 42.3 56.3002C46.5 55.7002 50.6 54.9002 54.7 53.7002C58.3 52.6002 60.3 50.4002 61.5 46.0002C62.3 43.0002 62.7 39.5002 63 36.1002C63.4 31.3002 64.3 17.5002 64.1 15.1002C63.9 13.3002 63.5 11.6002 62.6 10.4002C60.6 7.80021 57.6 7.10017 52.2 6.80017C41.7 6.20017 31.3 7.70021 20.3 10.9002C17.4 11.7002 15.7 12.5002 13.6 13.5002C6.90002 16.9002 8.7 23.0002 9.3 28.4002C9.3 28.4002 12 43.5002 15.2 51.3002C16.7 54.9002 19.3 56.7002 23.4 56.9002C26.1 57.2002 32.4 57.1002 35.6 56.9002Z" fill="#12102C"/>
<path d="M27.7 56.2999C32.5 56.2999 37.4 56.0999 42.2 55.4999C46.5 54.9999 50.6 54.0999 54.5 52.9999C57.9 51.9999 59.6 49.9999 60.8 45.7999C61.6 42.8999 61.9 39.3999 62.3 35.9999C62.7 30.3999 63.1 25.7999 63.3 21.5999C63.3 21.0665 63.3333 20.4999 63.4 19.8999C63.6 16.7999 63.6 12.8999 62 10.8999C60.2 8.4999 57.3 7.89985 52.2 7.59985C50.6 7.46652 49.0333 7.3999 47.5 7.3999C39.1 7.3999 30.2 8.79985 20.5 11.5999C17.6 12.4999 16 13.1999 14 14.1999C8.60001 16.8999 9.2 21.4999 9.8 26.2999C9.93334 26.9665 10.0334 27.6332 10.1 28.2999C10.1 28.3999 12.7 43.3999 15.9 50.9999C17.2 54.2999 19.6 55.8999 23.5 56.1999C24.9 56.2666 26.3 56.2999 27.7 56.2999Z" fill="url(#paint4_linear_9_8974)"/>
<path d="M28.5 53.7998C33 53.7998 37.4 53.4998 42 52.8998C46.1 52.3998 50.2 51.5998 53.9 50.3998C56.3 49.6998 57.9 48.5998 59 44.4998C60.3 39.8998 61.1 25.4998 61.3 21.3998C61.4 18.2998 61.9 13.6998 60.8 11.6998C59.2 8.79982 55.2 8.49982 51.9 8.19982C42 7.49982 33.5 8.79982 21.2 12.1998C18.4 12.9998 15.4 14.0998 13.2 15.7998C10.4 17.8998 11.2 21.5998 11.7 25.2998C11.7667 25.9665 11.8333 26.6331 11.9 27.2998C12.3 29.2998 14.7 42.6998 17.6 49.4998C18.7 52.1998 20.8 53.3998 23.6 53.5998C25.3 53.6998 26.9 53.7998 28.5 53.7998Z" fill="url(#paint5_linear_9_8974)"/>
<path style="mix-blend-mode:screen" d="M11.7 24.4998C11.7667 25.2332 11.8333 25.9331 11.9 26.5998C12.3 28.5998 14.7 41.8998 17.6 48.7998C18.7 51.3998 20.8 52.5998 23.6 52.8998C25.3 52.9998 26.9 52.9998 28.5 52.9998C33 53.0998 37.4 52.7998 42 52.1998C46.1 51.5998 50.2 50.7998 53.9 49.6998C56.3 48.9998 57.9 47.7998 59 43.7998C60.3 39.0998 61.1 24.7998 61.3 20.5998C61.3 19.1998 61.5 17.4998 61.5 15.7998C61.5 17.6998 61.3 19.7998 61.3 21.3998C61.1 25.4998 60.3 39.8998 59 44.4998C57.9 48.5998 56.3 49.6998 53.9 50.3998C50.2 51.5998 46.1 52.3998 42 52.8998C37.4 53.4998 33 53.7998 28.5 53.7998C26.9 53.7998 25.3 53.6998 23.6 53.5998C20.8 53.3998 18.7 52.1998 17.6 49.4998C14.7 42.6998 12.3 29.2998 11.9 27.2998C11.8333 26.6331 11.7667 25.9665 11.7 25.2998C11.4 23.4998 11.1 21.7998 11.2 20.1998C11.2 21.5998 11.5 23.0998 11.7 24.4998Z" fill="url(#paint6_radial_9_8974)"/>
<path d="M2.9 21.4C2.9 19.9 3.1 18.5 3.4 17.2C4.2 14.5 5.7 11.9 7.9 10.1C9.9 8.59999 12.3 7.49999 14.7 6.59999C16.1 6.09999 17.4 5.80004 18.8 5.40004C19.3333 5.26671 19.9 5.10004 20.5 4.90004C21.1667 4.76671 21.8 4.63335 22.4 4.50002C29.8 2.70002 37.4 1.60002 45 1.00002C47.5 0.800016 50.1 0.700041 52.6 0.900041C57.8 1.20004 64.1 2.10003 67.3 6.70003C68.3 8.30003 69.1 10.1 69.5 11.9C70.1 14.9 69.9 17.9 69.8 20.9C69.8 21.1 69.8 21.3 69.8 21.5C69.8 19.6 69.6 17.5 69.2 15.6C68.4 11.3 66.1 7.3 62.4 4.8C59.5 2.8 56 2.60004 52.6 2.40004C45 1.90004 28.2 4.20004 18.8 6.90004C14.6 8.10004 10.2 10.3 7.60001 13.9C5.20001 17.3 3.80001 21.4 3.70001 25.6C3.60001 28.8 3.9 32.2 4.4 35.4C4.2 34.7 4.2 33.7 4 33.4C3.86667 32.4 3.7 31.4 3.5 30.4C3.1 26.6 2.8 23.8 2.9 21.4Z" fill="#F7FFF3"/>
<path style="mix-blend-mode:screen" d="M32.8 9.39981C39.5 8.19981 45.4 7.7998 51.9 8.1998C55.2 8.4998 59.2 8.7998 60.8 11.6998C61.9 13.6998 61.4 18.2998 61.3 21.3998C61.2 23.3998 61 27.9998 60.6 32.5998C60.4667 32.8664 60.3333 33.1331 60.2 33.3998C60.4 13.4998 52.8 8.79981 32.8 9.39981Z" fill="url(#paint7_radial_9_8974)"/>
<path style="mix-blend-mode:screen" d="M17.6 49.4999C14.7 42.6999 12.3 29.2999 11.9 27.2999C11.8333 26.6332 11.7667 25.9665 11.7 25.2999C11.5667 24.6332 11.4667 23.9999 11.4 23.3999C17 49.8999 28.2 54.7999 50.9 51.2999C48.0333 51.9665 45.0667 52.4999 42 52.8999C37.4 53.4999 33 53.7999 28.5 53.7999C26.9 53.7999 25.3 53.6999 23.6 53.5999C20.8 53.3999 18.7 52.1999 17.6 49.4999Z" fill="url(#paint8_radial_9_8974)"/>
<path style="mix-blend-mode:screen" d="M19.8 35.0999C22.9 37.0999 26.5 38.2999 29.9 38.6999C39.4 39.5999 49.7 34.9999 55.9 27.8999C62.7 20.0999 61.7 9.69988 50.5 8.79988C42.3 8.09988 33.3 8.99988 25.4 11.7999C19.9 13.7999 12 15.7999 12 22.5999C12 27.8999 15.4 32.1999 19.8 35.0999Z" fill="url(#paint9_radial_9_8974)"/>
<g style="mix-blend-mode:screen" opacity="0.8">
<path d="M54.4 10.8C56 9.30001 60.3 12.3 60 14C59.7 16.1 54.8 13.5 54.3 12.4C54 11.7 54.1 11.1 54.4 10.8Z" fill="white"/>
</g>
<g style="mix-blend-mode:screen" opacity="0.6">
<path d="M20 49C21.1 47.9 24.2 50 24 51.3C23.8 52.8 20.3 50.9 19.9 50.1C19.7 49.6 19.7 49.2 20 49Z" fill="#1CBECA"/>
</g>
<g style="mix-blend-mode:screen" opacity="0.8">
<path d="M50.4 9.40009C51.3 8.70009 53.5 10.0001 52.5 11.0001C51.7 11.8001 48.9 10.5001 50.4 9.40009Z" fill="white"/>
</g>
<g style="mix-blend-mode:screen" opacity="0.6">
<path d="M17.8 45.7999C18.8 45.2999 20.7 46.9999 19.6 47.7999C18.6 48.4999 16.1 46.6999 17.8 45.7999Z" fill="#1CBECA"/>
</g>
<path style="mix-blend-mode:screen" d="M11.7 25.2998C11.2 21.5998 10.4 17.8998 13.2 15.7998C15.4 14.0998 18.4 12.9998 21.2 12.1998C33.5 8.79982 42 7.49982 51.9 8.19982C55.2 8.49982 59.2 8.79982 60.8 11.6998C61.9 13.6998 61.4 18.2998 61.3 21.3998C60.9 32.6998 60.6 41.0998 48.8 46.4998C39.3 50.8998 26.8 49.9998 19 42.4998C14.6 38.1998 12.5 31.2998 11.7 25.2998Z" fill="url(#paint10_radial_9_8974)"/>
<g style="mix-blend-mode:screen" opacity="0.8">
<path d="M57.8 56.1999C57.3 54.6999 60.5 52.6999 61.6 53.3999C62.9 54.1999 59.7 56.6999 58.8 56.6999C58.3 56.6999 57.9 56.4999 57.8 56.1999Z" fill="#7C77B2"/>
</g>
<g style="mix-blend-mode:screen" opacity="0.8">
<path d="M62.1 52.9998C61.7 52.1998 63.2 50.5998 63.6 51.8998C63.9 52.6998 62.5 53.8998 62.1 52.9998Z" fill="#7C77B2"/>
</g>
<path d="M28.8 25.7C27.7333 25.7666 26.8 25.4666 26 24.7999C25.2667 24.1999 24.8666 23.3666 24.8 22.2999C24.6666 20.8333 25.0333 19.3333 25.9 17.7999C26.7667 16.1999 28.0666 14.8666 29.8 13.7999C31.6 12.7333 33.7333 12.1 36.2 11.9C37.4667 11.8333 38.8667 11.9666 40.4 12.2999C41.8667 12.6333 43.2667 13.1666 44.6 13.9C45.8667 14.6333 46.9333 15.5333 47.8 16.5999C48.6 17.7333 49.0667 19 49.2 20.4C49.4 23.6 47.7 26.0333 44.1 27.7C42.9667 28.1666 42.2 28.6999 41.8 29.2999C41.3333 29.8999 40.9667 30.6333 40.7 31.4999C40.4333 32.2999 40.1 32.8999 39.7 33.2999C39.3 33.6999 38.5333 33.9333 37.4 33.9999C36.4 34.0666 35.5667 33.8333 34.9 33.2999C34.3 32.6999 33.9667 31.9 33.9 30.9C33.8333 29.9666 33.9333 29.0999 34.2 28.2999C34.5333 27.4999 35 26.5333 35.6 25.4C36.2667 24.2 36.7333 23.2 37 22.4C37.3333 21.6 37.4667 20.7333 37.4 19.7999C37.3333 19.1999 37.1333 18.6333 36.8 18.0999C36.4666 17.5666 36.0333 17.3333 35.5 17.4C34.8333 17.4666 34.4333 17.6999 34.3 18.0999C34.1666 18.5666 34.0667 19.1666 34 19.9C34 21.5666 33.5333 22.9 32.6 23.9C31.6667 24.9666 30.4 25.5666 28.8 25.7ZM38.1 48.4C36.5667 48.4666 35.2 47.9999 34 46.9999C32.8667 45.9999 32.2333 44.7333 32.1 43.2C32.0333 42.2666 32.2333 41.3333 32.7 40.4C33.1 39.5333 33.7333 38.8 34.6 38.2C35.4 37.6666 36.3 37.3666 37.3 37.2999C38.2333 37.2333 39.1667 37.3999 40.1 37.7999C40.9667 38.2666 41.7 38.9 42.3 39.7C42.8333 40.5666 43.1333 41.4666 43.2 42.4C43.2667 43.4 43.0667 44.3666 42.6 45.2999C42.2 46.1666 41.6 46.8666 40.8 47.4C40 48 39.1 48.3333 38.1 48.4Z" fill="white"/>
<path opacity="0.5" d="M28.8 27.5999C27.7333 27.6666 26.8 27.3999 26 26.7999C25.2667 26.1333 24.8666 25.2999 24.8 24.2999C24.6666 22.7666 25.0333 21.2333 25.9 19.7C26.7667 18.1666 28.0666 16.8666 29.8 15.7999C31.6 14.7333 33.7333 14.1 36.2 13.9C37.4667 13.8333 38.8667 13.9666 40.4 14.2999C41.8667 14.6333 43.2667 15.1666 44.6 15.9C45.8667 16.6333 46.9333 17.5333 47.8 18.5999C48.6 19.7333 49.0667 21 49.2 22.4C49.4 25.5333 47.7 27.9666 44.1 29.7C42.9667 30.1666 42.2 30.6999 41.8 31.2999C41.3333 31.8999 40.9667 32.6333 40.7 33.4999C40.4333 34.2999 40.1 34.8999 39.7 35.2999C39.3 35.6333 38.5333 35.8666 37.4 35.9999C36.4 36.0666 35.5667 35.8 34.9 35.2C34.3 34.6666 33.9667 33.9 33.9 32.9C33.8333 31.9666 33.9333 31.0999 34.2 30.2999C34.5333 29.4999 35 28.4999 35.6 27.2999C36.2667 26.1666 36.7333 25.2 37 24.4C37.3333 23.6 37.4667 22.7333 37.4 21.7999C37.3333 21.1333 37.1333 20.5666 36.8 20.0999C36.4666 19.5666 36.0333 19.3333 35.5 19.4C34.8333 19.4 34.4333 19.6333 34.3 20.0999C34.1666 20.4999 34.0667 21.1 34 21.9C34 23.5666 33.5333 24.9 32.6 25.9C31.6667 26.9666 30.4 27.5333 28.8 27.5999ZM38.1 50.2999C36.5667 50.4333 35.2 49.9999 34 48.9999C32.8667 47.9999 32.2333 46.7333 32.1 45.2C32.0333 44.2 32.2333 43.2666 32.7 42.4C33.1 41.5333 33.7333 40.8 34.6 40.2C35.4 39.6666 36.3 39.3666 37.3 39.2999C38.2333 39.2333 39.1667 39.3999 40.1 39.7999C40.9667 40.2666 41.7 40.9 42.3 41.7C42.8333 42.5 43.1333 43.4 43.2 44.4C43.2667 45.4 43.0667 46.3333 42.6 47.2C42.2 48.1333 41.6 48.8666 40.8 49.4C40 49.9333 39.1 50.2333 38.1 50.2999Z" fill="#D6D1FA"/>
<path d="M28.8 26.5999C27.7333 26.7333 26.8 26.4666 26 25.7999C25.2667 25.1999 24.8666 24.3666 24.8 23.2999C24.6666 21.8333 25.0333 20.3 25.9 18.7C26.7667 17.1666 28.0666 15.8666 29.8 14.7999C31.6 13.7333 33.7333 13.1 36.2 12.9C37.4667 12.8333 38.8667 12.9666 40.4 13.2999C41.8667 13.6333 43.2667 14.1666 44.6 14.9C45.8667 15.6333 46.9333 16.5333 47.8 17.5999C48.6 18.7333 49.0667 20 49.2 21.4C49.4 24.6 47.7 27.0333 44.1 28.7C42.9667 29.1666 42.2 29.6999 41.8 30.2999C41.3333 30.8999 40.9667 31.6333 40.7 32.4999C40.4333 33.2999 40.1 33.8999 39.7 34.2999C39.3 34.6999 38.5333 34.9333 37.4 34.9999C36.4 35.0666 35.5667 34.8 34.9 34.2C34.3 33.6666 33.9667 32.9 33.9 31.9C33.8333 30.9666 33.9333 30.0999 34.2 29.2999C34.5333 28.4999 35 27.5333 35.6 26.4C36.2667 25.2 36.7333 24.2 37 23.4C37.3333 22.6 37.4667 21.7333 37.4 20.7999C37.3333 20.1999 37.1333 19.6333 36.8 19.0999C36.4666 18.5666 36.0333 18.3333 35.5 18.4C34.8333 18.4666 34.4333 18.6999 34.3 19.0999C34.1666 19.4999 34.0667 20.1 34 20.9C34 22.5666 33.5333 23.9 32.6 24.9C31.6667 25.9666 30.4 26.5333 28.8 26.5999ZM38.1 49.4C36.5667 49.4666 35.2 48.9999 34 47.9999C32.8667 46.9999 32.2333 45.7333 32.1 44.2C32.0333 43.2 32.2333 42.2666 32.7 41.4C33.1 40.5333 33.7333 39.8 34.6 39.2C35.4 38.6666 36.3 38.3666 37.3 38.2999C38.2333 38.2333 39.1667 38.3999 40.1 38.7999C40.9667 39.2666 41.7 39.9 42.3 40.7C42.8333 41.5666 43.1333 42.4666 43.2 43.4C43.2667 44.4 43.0667 45.3333 42.6 46.2C42.2 47.1333 41.6 47.8666 40.8 48.4C40 49 39.1 49.3333 38.1 49.4Z" fill="#12102C"/>
<defs>
<linearGradient id="paint0_linear_9_8974" x1="6.42199" y1="3.72895" x2="6.42199" y2="65.3619" gradientUnits="userSpaceOnUse">
<stop stop-color="#A8A3D6"/>
<stop offset="0.291" stop-color="#7C77B2"/>
<stop offset="0.816" stop-color="#2A2A62"/>
<stop offset="1" stop-color="#111031"/>
</linearGradient>
<linearGradient id="paint1_linear_9_8974" x1="-2.20002" y1="2.76983" x2="10.7877" y2="83.0638" gradientUnits="userSpaceOnUse">
<stop stop-color="#E4E8E9"/>
<stop offset="1" stop-color="#7B76A0"/>
</linearGradient>
<radialGradient id="paint2_radial_9_8974" cx="0" cy="0" r="1" gradientUnits="userSpaceOnUse" gradientTransform="translate(46.157 61.5542) rotate(180) scale(27.933 27.933)">
<stop stop-color="#50C8E8"/>
<stop offset="1" stop-color="#1C172E"/>
</radialGradient>
<radialGradient id="paint3_radial_9_8974" cx="0" cy="0" r="1" gradientUnits="userSpaceOnUse" gradientTransform="translate(34.516 27.2952) rotate(180) scale(44.008 44.008)">
<stop stop-color="#E4E8E9"/>
<stop offset="1" stop-color="#8C94D3"/>
</radialGradient>
<linearGradient id="paint4_linear_9_8974" x1="13.203" y1="7.9469" x2="14.1629" y2="50.7989" gradientUnits="userSpaceOnUse">
<stop stop-color="#7C77B2"/>
<stop offset="1" stop-color="#36335E"/>
</linearGradient>
<linearGradient id="paint5_linear_9_8974" x1="17.559" y1="-4.59117" x2="6.72348" y2="63.2469" gradientUnits="userSpaceOnUse">
<stop stop-color="#8C94D3"/>
<stop offset="1" stop-color="#7C77B2"/>
</linearGradient>
<radialGradient id="paint6_radial_9_8974" cx="0" cy="0" r="1" gradientUnits="userSpaceOnUse" gradientTransform="translate(40.064 52.0548) rotate(180) scale(30.486 30.486)">
<stop stop-color="#1CBECA"/>
<stop offset="1"/>
</radialGradient>
<radialGradient id="paint7_radial_9_8974" cx="0" cy="0" r="1" gradientUnits="userSpaceOnUse" gradientTransform="translate(62.659 -3.0612) rotate(180) scale(41.126 41.126)">
<stop stop-color="#7C77B2"/>
<stop offset="1" stop-color="#1C172E"/>
</radialGradient>
<radialGradient id="paint8_radial_9_8974" cx="0" cy="0" r="1" gradientUnits="userSpaceOnUse" gradientTransform="translate(52.522 10.1209) rotate(180) scale(52.35 52.3499)">
<stop stop-color="#1CBECA"/>
<stop offset="1" stop-color="#1C172E"/>
</radialGradient>
<radialGradient id="paint9_radial_9_8974" cx="0" cy="0" r="1" gradientUnits="userSpaceOnUse" gradientTransform="translate(36.445 23.3029) rotate(180) scale(27.266 27.266)">
<stop stop-color="#8C94D3"/>
<stop offset="1"/>
</radialGradient>
<radialGradient id="paint10_radial_9_8974" cx="0" cy="0" r="1" gradientUnits="userSpaceOnUse" gradientTransform="translate(59.802 2.60582) rotate(180) scale(48.222 48.222)">
<stop stop-color="#8C94D3"/>
<stop offset="1" stop-color="#130B0D"/>
</radialGradient>
</defs>
</svg>
