<svg width="71" height="69" viewBox="0 0 71 69" fill="none" xmlns="http://www.w3.org/2000/svg">
<g style="mix-blend-mode:multiply" opacity="0.3">
<path d="M4.2 51.5998C5.8 57.4998 8.8 62.3998 15.5 64.5998C26.4 68.0998 37.9 69.0999 49.8 68.4999C56 68.2999 61 65.1998 63.5 58.5998C66.8 49.8998 68.3 42.5999 69.6 33.3999C70.4 24.7999 70.9 20.8999 68.1 15.4999C65.1 9.69985 59.1 7.79983 53.7 6.09983C44 3.19983 26.7 0.499878 18.8 0.899878C13 1.29988 7.4 2.09984 3.7 7.29984C0.700004 11.6998 1.2 17.3998 1.3 22.5998C1.5 27.7998 1.7 33.0999 2.2 38.3999C2.7 42.7999 3.1 47.3998 4.2 51.5998Z" fill="#12102C"/>
</g>
<path d="M3.70002 49.4C5.20002 54.9 8.10002 59.4999 14.5 61.4999C25 64.6999 36.1 65.5999 47.5 64.9999C53.6 64.6999 58.3 61.8 60.8 55.7C64.1 47.5 65.6 40.6999 66.8 32.0999C67.6 23.9999 68.1 20.4 65.4 15.4C62.5 9.99997 56.7 8.19996 51.6 6.69996C42.2 3.89996 25.5 1.49995 18 1.99995C12.4 2.29995 7.00002 3.09995 3.40002 7.99995C0.400015 12.0999 0.900015 17.3999 1.00002 22.2999C1.10002 27.1999 1.30001 32.0999 1.80001 37.0999C2.20001 41.1999 2.60002 45.5 3.70002 49.4Z" fill="url(#paint0_linear_9_8948)"/>
<path d="M3.50001 47.5998C5.00001 52.9998 7.90001 57.4998 14.4 59.3998C24.9 62.4998 36.1 63.3998 47.7 62.7998C53.8 62.4998 58.6 59.5998 61.1 53.5998C64.4 45.4998 65.9 38.7998 67.2 30.3998C68 22.3998 68.6 18.7998 65.9 13.8998C63 8.59983 57.2 6.89983 52 5.39983C42.5 2.69983 25.7 0.399834 18.1 0.899834C12.5 1.19983 7.00001 1.99983 3.40001 6.89983C0.400009 10.8998 0.900009 16.1998 0.900009 20.8998C1.00001 25.7998 1.20001 30.5998 1.70001 35.3998C2.10001 39.4998 2.40001 43.7998 3.50001 47.5998Z" fill="url(#paint1_linear_9_8948)"/>
<path style="mix-blend-mode:screen" d="M61.7 51.2002C61.5 51.7335 61.3 52.2668 61.1 52.8002C58.6 58.8002 53.8 61.7002 47.7 62.1002C36.1 62.7002 24.9 61.8002 14.4 58.7002C7.90002 56.7002 5.00002 52.2002 3.50002 46.8002C3.23335 46.0002 3.03335 45.1335 2.90002 44.2002C2.83335 44.2669 2.80002 44.3335 2.80002 44.4002C3.00002 45.4669 3.23335 46.5335 3.50002 47.6002C5.00002 53.0002 7.90002 57.5002 14.4 59.4002C24.9 62.5002 36.1 63.4002 47.7 62.8002C53.8 62.5002 58.6 59.6002 61.1 53.6002C61.3 53.0002 61.5334 52.4002 61.8 51.8002C61.8 51.6002 61.7667 51.4002 61.7 51.2002Z" fill="url(#paint2_radial_9_8948)"/>
<path d="M43.1 58.6002C40.2 58.6002 37 58.5002 35 58.3002C33 58.3002 30.9 58.1002 28.2 57.7002C23.9 57.2002 19.6 56.3002 15.6 55.1002C11.5 53.9002 9.20001 51.3002 7.80001 46.4002C6.90001 43.3002 6.60001 39.7002 6.20001 36.2002C5.70001 28.1002 5.00001 17.2002 5.20001 14.9002C5.40001 12.5002 6.00001 10.8002 7.00001 9.50018C9.30001 6.50018 12.8 5.70017 18.4 5.30017C20 5.2335 21.6333 5.2002 23.3 5.2002C31.9 5.2002 40.9 6.60018 50.9 9.50018C53.9 10.4002 55.6 11.1002 57.8 12.2002C64.6 15.7002 63.8 21.7002 63.1 26.6002C63.0333 27.2668 62.9667 27.9335 62.9 28.6002V28.7002C62.8 29.3002 60.2 44.0002 56.9 51.9002C55.2 56.0002 52.1 58.1002 47.4 58.4002C46.5 58.5002 45 58.6002 43.1 58.6002Z" fill="url(#paint3_radial_9_8948)"/>
<path d="M35.1 56.9002C32.9 56.8002 30.6 56.5002 28.4 56.3002C24.2 55.7002 20.1 54.9002 16.1 53.7002C12.4 52.6002 10.4 50.4002 9.20001 46.0002C8.40001 43.0002 8.10001 39.5002 7.70001 36.1002C7.40001 31.3002 6.50001 17.5002 6.70001 15.1002C6.90001 13.3002 7.30001 11.6002 8.20001 10.4002C10.1 7.80021 13.2 7.10017 18.5 6.80017C29 6.20017 39.5 7.70021 50.4 10.9002C53.3 11.7002 55 12.5002 57.1 13.5002C63.8 16.9002 62 23.0002 61.4 28.4002C61.4 28.4002 58.8 43.5002 55.6 51.3002C54.1 54.9002 51.4 56.7002 47.3 56.9002C44.6 57.2002 38.3 57.1002 35.1 56.9002Z" fill="#12102C"/>
<path d="M43.1 56.2999C38.2 56.2999 33.3 56.0999 28.5 55.4999C24.3 54.9999 20.1 54.0999 16.3 52.9999C12.9 51.9999 11.1 49.9999 9.90001 45.7999C9.10001 42.8999 8.80001 39.3999 8.50001 35.9999C8.10001 30.3999 7.60001 25.7999 7.50001 21.5999C7.43334 21.0665 7.40001 20.4999 7.40001 19.8999C7.20001 16.7999 7.20001 12.8999 8.70001 10.8999C10.5 8.4999 13.5 7.89985 18.6 7.59985C20.1333 7.46652 21.7 7.3999 23.3 7.3999C31.7 7.3999 40.5 8.79985 50.2 11.5999C53.1 12.4999 54.7 13.1999 56.8 14.1999C62.2 16.8999 61.6 21.4999 60.9 26.2999C60.8333 26.9665 60.7667 27.6332 60.7 28.2999C60.7 28.3999 58 43.3999 54.9 50.9999C53.5 54.2999 51.1 55.8999 47.3 56.1999C45.9 56.2666 44.5 56.2999 43.1 56.2999Z" fill="url(#paint4_linear_9_8948)"/>
<path d="M42.2 53.7998C37.7 53.7998 33.3 53.4998 28.7 52.8998C24.6 52.3998 20.6 51.5998 16.8 50.3998C14.4 49.6998 12.9 48.5998 11.7 44.4998C10.4 39.8998 9.60001 25.4998 9.40001 21.3998C9.30001 18.2998 8.80001 13.6998 10 11.6998C11.6 8.79982 15.5 8.49982 18.9 8.19982C28.8 7.49982 37.2 8.79982 49.5 12.1998C52.4 12.9998 55.4 14.0998 57.6 15.7998C60.3 17.8998 59.6 21.5998 59.1 25.2998C58.9667 25.9665 58.8667 26.6331 58.8 27.2998C58.5 29.2998 56 42.6998 53.2 49.4998C52.1 52.1998 49.9 53.3998 47.1 53.5998C45.5 53.6998 43.8 53.7998 42.2 53.7998Z" fill="url(#paint5_linear_9_8948)"/>
<path style="mix-blend-mode:screen" d="M59.1 24.4998C58.9667 25.2332 58.8667 25.9331 58.8 26.5998C58.5 28.5998 56 41.8998 53.2 48.7998C52.1 51.3998 49.9 52.5998 47.1 52.8998C45.5 52.9998 43.8 52.9998 42.2 52.9998C37.7 53.0998 33.3 52.7998 28.7 52.1998C24.6 51.5998 20.6 50.7998 16.8 49.6998C14.4 48.9998 12.9 47.7998 11.7 43.7998C10.4 39.0998 9.60001 24.7998 9.40001 20.5998C9.40001 19.1998 9.30001 17.4998 9.20001 15.7998C9.20001 17.6998 9.40001 19.7998 9.40001 21.3998C9.60001 25.4998 10.4 39.8998 11.7 44.4998C12.9 48.5998 14.4 49.6998 16.8 50.3998C20.6 51.5998 24.6 52.3998 28.7 52.8998C33.3 53.4998 37.7 53.7998 42.2 53.7998C43.8 53.7998 45.5 53.6998 47.1 53.5998C49.9 53.3998 52.1 52.1998 53.2 49.4998C56 42.6998 58.5 29.2998 58.8 27.2998C58.8667 26.6331 58.9667 25.9665 59.1 25.2998C59.3 23.4998 59.6 21.7998 59.6 20.1998C59.5 21.5998 59.3 23.0998 59.1 24.4998Z" fill="url(#paint6_radial_9_8948)"/>
<path d="M67.9 21.4C67.9 19.9 67.7 18.5 67.3 17.2C66.5 14.5 65 11.9 62.8 10.1C60.8 8.59999 58.4 7.49999 56 6.59999C54.7 6.09999 53.3 5.80004 52 5.40004C51.4 5.26671 50.8 5.10004 50.2 4.90004C49.6 4.76671 48.9667 4.63335 48.3 4.50002C40.9 2.70002 33.3 1.60002 25.8 1.00002C23.2 0.800016 20.7 0.700041 18.1 0.900041C13 1.20004 6.60001 2.10003 3.50001 6.70003C2.40001 8.30003 1.60001 10.1 1.30001 11.9C0.700011 14.9 0.900012 17.9 0.900012 20.9C0.900012 21.1 0.933345 21.3 1.00001 21.5C0.900012 19.6 1.10001 17.5 1.50001 15.6C2.30001 11.3 4.70001 7.3 8.30001 4.8C11.3 2.8 14.7 2.60004 18.1 2.40004C25.7 1.90004 42.5 4.20004 52 6.90004C56.1 8.10004 60.6 10.3 63.1 13.9C65.6 17.3 66.9 21.4 67 25.6C67.1 28.8 66.8 32.2 66.4 35.4C66.5 34.7 66.6 33.7 66.7 33.4C66.9 32.4 67.0667 31.4 67.2 30.4C67.6 26.6 67.9 23.8 67.9 21.4Z" fill="#F7FFF3"/>
<path style="mix-blend-mode:screen" d="M37.9 9.39981C31.2 8.19981 25.3 7.7998 18.9 8.1998C15.5 8.4998 11.6 8.7998 10 11.6998C8.80001 13.6998 9.30001 18.2998 9.40001 21.3998C9.50001 23.3998 9.80001 27.9998 10.1 32.5998C10.2333 32.8664 10.3667 33.1331 10.5 33.3998C10.3 13.4998 17.9 8.79981 37.9 9.39981Z" fill="url(#paint7_radial_9_8948)"/>
<path style="mix-blend-mode:screen" d="M53.2 49.4999C56 42.6999 58.5 29.2999 58.8 27.2999C58.8667 26.6332 58.9667 25.9665 59.1 25.2999C59.1667 24.6332 59.2333 23.9999 59.3 23.3999C53.7 49.8999 42.5 54.7999 19.8 51.2999C22.6667 51.9665 25.6333 52.4999 28.7 52.8999C33.3 53.4999 37.7 53.7999 42.2 53.7999C43.8 53.7999 45.5 53.6999 47.1 53.5999C49.9 53.3999 52.1 52.1999 53.2 49.4999Z" fill="url(#paint8_radial_9_8948)"/>
<path style="mix-blend-mode:screen" d="M51 35.0999C47.9 37.0999 44.2 38.2999 40.8 38.6999C31.3 39.5999 21 34.9999 14.8 27.8999C8.00001 20.0999 9.10002 9.69988 20.2 8.79988C28.4 8.09988 37.4 8.99988 45.3 11.7999C50.8 13.7999 58.8 15.7999 58.7 22.5999C58.7 27.8999 55.4 32.1999 51 35.0999Z" fill="url(#paint9_radial_9_8948)"/>
<g style="mix-blend-mode:screen" opacity="0.8">
<path d="M16.3 10.8C14.8 9.30001 10.5 12.3 10.7 14C11 16.1 15.9 13.5 16.4 12.4C16.7 11.7 16.7 11.1 16.3 10.8Z" fill="white"/>
</g>
<g style="mix-blend-mode:screen" opacity="0.6">
<path d="M50.8 49C49.6 47.9 46.5 50 46.7 51.3C47 52.8 50.5 50.9 50.8 50.1C51.1 49.6 51 49.2 50.8 49Z" fill="#1CBECA"/>
</g>
<g style="mix-blend-mode:screen" opacity="0.8">
<path d="M20.3 9.40009C19.4 8.70009 17.3 10.0001 18.2 11.0001C19.1 11.8001 21.8 10.5001 20.3 9.40009Z" fill="white"/>
</g>
<g style="mix-blend-mode:screen" opacity="0.6">
<path d="M52.9 45.7999C51.9 45.2999 50 46.9999 51.1 47.7999C52.1 48.4999 54.6 46.6999 52.9 45.7999Z" fill="#1CBECA"/>
</g>
<path style="mix-blend-mode:screen" d="M59.1 25.2998C59.6 21.5998 60.3 17.8998 57.6 15.7998C55.4 14.0998 52.4 12.9998 49.5 12.1998C37.2 8.79982 28.8 7.49982 18.9 8.19982C15.5 8.49982 11.6 8.79982 10 11.6998C8.80001 13.6998 9.30001 18.2998 9.40001 21.3998C9.80001 32.6998 10.2 41.0998 21.9 46.4998C31.5 50.8998 43.9 49.9998 51.7 42.4998C56.2 38.1998 58.3 31.2998 59.1 25.2998Z" fill="url(#paint10_radial_9_8948)"/>
<g style="mix-blend-mode:screen" opacity="0.8">
<path d="M12.9 56.1999C13.5 54.6999 10.2 52.6999 9.10001 53.3999C7.90001 54.1999 11 56.6999 11.9 56.6999C12.5 56.6999 12.8 56.4999 12.9 56.1999Z" fill="#7C77B2"/>
</g>
<g style="mix-blend-mode:screen" opacity="0.8">
<path d="M8.70001 52.9998C9.10001 52.1998 7.50001 50.5998 7.10001 51.8998C6.80001 52.6998 8.20001 53.8998 8.70001 52.9998Z" fill="#7C77B2"/>
</g>
<path fill-rule="evenodd" clip-rule="evenodd" d="M46.2 34.4998C46.2 34.5665 46.1667 34.6665 46.1 34.7998L47.9 38.4998C47.9667 38.6998 48 38.9332 48 39.1998C47.9333 39.3998 47.8 39.5998 47.6 39.7998L43.8 43.5998C43.6 43.7998 43.4 43.8998 43.2 43.8998C42.9333 43.9665 42.7 43.9331 42.5 43.7998L38.6 41.9998C38.6 41.9998 38.5667 41.9998 38.5 41.9998L37.1 46.0998C37.0333 46.2998 36.9 46.4665 36.7 46.5998C36.5 46.7331 36.2667 46.7998 36 46.7998H30.6C30.3333 46.7998 30.1 46.7331 29.9 46.5998C29.7 46.4665 29.5667 46.2998 29.5 46.0998L28 41.9998H28.1C28.0333 41.9998 28 41.9998 28 41.9998L24.1 43.7998C23.9 43.9331 23.6667 43.9665 23.4 43.8998C23.2 43.8998 23 43.7998 22.8 43.5998L19 39.7998C18.8 39.5998 18.6667 39.3998 18.6 39.1998C18.6 38.9332 18.6333 38.6998 18.7 38.4998L20.5 34.6998C20.5 34.6332 20.5 34.5665 20.5 34.4998L16.5 33.0998C16.3 33.0331 16.1333 32.8998 16 32.6998C15.8667 32.4998 15.8 32.2998 15.8 32.0998V26.5998C15.8 26.3998 15.8667 26.1998 16 25.9998C16.1333 25.7998 16.3 25.6332 16.5 25.4998L20.4 24.0998C20.4667 24.0331 20.5 23.9665 20.5 23.8998L18.7 20.1998C18.6333 19.9998 18.6 19.7665 18.6 19.4998C18.6667 19.2332 18.8 19.0332 19 18.8998L22.8 14.9998C23 14.8665 23.2 14.7665 23.4 14.6998C23.6667 14.6998 23.9 14.7331 24.1 14.7998L27.9 16.5998C27.9667 16.5998 28.0333 16.5998 28.1 16.5998L29.5 12.5998C29.5667 12.3331 29.7 12.1332 29.9 11.9998C30.1 11.8665 30.3333 11.7998 30.6 11.7998H36C36.2667 11.7998 36.5 11.8665 36.7 11.9998C36.9 12.1332 37.0333 12.3331 37.1 12.5998L38.5 16.4998C38.5667 16.5665 38.6333 16.5998 38.7 16.5998L42.5 14.7998C42.7 14.7331 42.9333 14.6998 43.2 14.6998C43.4 14.7665 43.6 14.8665 43.8 14.9998L47.6 18.8998C47.8 19.0332 47.9 19.2332 47.9 19.4998C47.9667 19.7665 47.9333 19.9998 47.8 20.1998L46.1 23.7998C46.1667 23.9331 46.2333 24.0665 46.3 24.1998L50.1 25.4998C50.3 25.6332 50.4667 25.7998 50.6 25.9998C50.7333 26.1998 50.8 26.3998 50.8 26.5998V32.0998C50.8 32.2998 50.7333 32.4998 50.6 32.6998C50.4667 32.8998 50.3 33.0331 50.1 33.0998L46.2 34.4998ZM40.7 29.2998C40.7 25.1998 37.4 21.8998 33.3 21.8998C29.2 21.8998 25.9 25.1998 25.9 29.2998C25.9 33.3998 29.2 36.6998 33.3 36.6998C37.4 36.6998 40.7 33.3998 40.7 29.2998Z" fill="#FDFEFF"/>
<path opacity="0.5" fill-rule="evenodd" clip-rule="evenodd" d="M46.2 36.4998C46.2 36.5665 46.1667 36.6665 46.1 36.7998L47.9 40.4998C47.9667 40.6998 48 40.9332 48 41.1998C47.9333 41.3998 47.8 41.5998 47.6 41.7998L43.8 45.5998C43.6 45.7998 43.4 45.8998 43.2 45.8998C42.9333 45.9665 42.7 45.9331 42.5 45.7998L38.6 43.9998C38.6 43.9998 38.5667 43.9998 38.5 43.9998L37.1 48.0998C37.0333 48.2998 36.9 48.4665 36.7 48.5998C36.5 48.7331 36.2667 48.7998 36 48.7998H30.6C30.3333 48.7998 30.1 48.7331 29.9 48.5998C29.7 48.4665 29.5667 48.2998 29.5 48.0998L28 43.9998H28.1C28.0333 43.9998 28 43.9998 28 43.9998L24.1 45.7998C23.9 45.9331 23.6667 45.9665 23.4 45.8998C23.2 45.8998 23 45.7998 22.8 45.5998L19 41.7998C18.8 41.5998 18.6667 41.3998 18.6 41.1998C18.6 40.9332 18.6333 40.6998 18.7 40.4998L20.5 36.6998C20.5 36.6332 20.5 36.5665 20.5 36.4998L16.5 35.0998C16.3 35.0331 16.1333 34.8998 16 34.6998C15.8667 34.4998 15.8 34.2998 15.8 34.0998V28.5998C15.8 28.3998 15.8667 28.1998 16 27.9998C16.1333 27.7998 16.3 27.6332 16.5 27.4998L20.4 26.0998C20.4667 26.0331 20.5 25.9665 20.5 25.8998L18.7 22.1998C18.6333 21.9998 18.6 21.7665 18.6 21.4998C18.6667 21.2332 18.8 21.0332 19 20.8998L22.8 16.9998C23 16.8665 23.2 16.7665 23.4 16.6998C23.6667 16.6998 23.9 16.7331 24.1 16.7998L27.9 18.5998C27.9667 18.5998 28.0333 18.5998 28.1 18.5998L29.5 14.5998C29.5667 14.3331 29.7 14.1332 29.9 13.9998C30.1 13.8665 30.3333 13.7998 30.6 13.7998H36C36.2667 13.7998 36.5 13.8665 36.7 13.9998C36.9 14.1332 37.0333 14.3331 37.1 14.5998L38.5 18.4998C38.5667 18.5665 38.6333 18.5998 38.7 18.5998L42.5 16.7998C42.7 16.7331 42.9333 16.6998 43.2 16.6998C43.4 16.7665 43.6 16.8665 43.8 16.9998L47.6 20.8998C47.8 21.0332 47.9 21.2332 47.9 21.4998C47.9667 21.7665 47.9333 21.9998 47.8 22.1998L46.1 25.7998C46.1667 25.9331 46.2333 26.0665 46.3 26.1998L50.1 27.4998C50.3 27.6332 50.4667 27.7998 50.6 27.9998C50.7333 28.1998 50.8 28.3998 50.8 28.5998V34.0998C50.8 34.2998 50.7333 34.4998 50.6 34.6998C50.4667 34.8998 50.3 35.0331 50.1 35.0998L46.2 36.4998ZM40.7 31.2998C40.7 27.1998 37.4 23.8998 33.3 23.8998C29.2 23.8998 25.9 27.1998 25.9 31.2998C25.9 35.3998 29.2 38.6998 33.3 38.6998C37.4 38.6998 40.7 35.3998 40.7 31.2998Z" fill="#D6D1FA"/>
<path fill-rule="evenodd" clip-rule="evenodd" d="M46.2 35.4998C46.2 35.5665 46.1667 35.6665 46.1 35.7998L47.9 39.4998C47.9667 39.6998 48 39.9332 48 40.1998C47.9333 40.3998 47.8 40.5998 47.6 40.7998L43.8 44.5998C43.6 44.7998 43.4 44.8998 43.2 44.8998C42.9333 44.9665 42.7 44.9331 42.5 44.7998L38.6 42.9998C38.6 42.9998 38.5667 42.9998 38.5 42.9998L37.1 47.0998C37.0333 47.2998 36.9 47.4665 36.7 47.5998C36.5 47.7331 36.2667 47.7998 36 47.7998H30.6C30.3333 47.7998 30.1 47.7331 29.9 47.5998C29.7 47.4665 29.5667 47.2998 29.5 47.0998L28 42.9998H28.1C28.0333 42.9998 28 42.9998 28 42.9998L24.1 44.7998C23.9 44.9331 23.6667 44.9665 23.4 44.8998C23.2 44.8998 23 44.7998 22.8 44.5998L19 40.7998C18.8 40.5998 18.6667 40.3998 18.6 40.1998C18.6 39.9332 18.6333 39.6998 18.7 39.4998L20.5 35.6998C20.5 35.6332 20.5 35.5665 20.5 35.4998L16.5 34.0998C16.3 34.0331 16.1333 33.8998 16 33.6998C15.8667 33.4998 15.8 33.2998 15.8 33.0998V27.5998C15.8 27.3998 15.8667 27.1998 16 26.9998C16.1333 26.7998 16.3 26.6332 16.5 26.4998L20.4 25.0998C20.4667 25.0331 20.5 24.9665 20.5 24.8998L18.7 21.1998C18.6333 20.9998 18.6 20.7665 18.6 20.4998C18.6667 20.2332 18.8 20.0332 19 19.8998L22.8 15.9998C23 15.8665 23.2 15.7665 23.4 15.6998C23.6667 15.6998 23.9 15.7331 24.1 15.7998L27.9 17.5998C27.9667 17.5998 28.0333 17.5998 28.1 17.5998L29.5 13.5998C29.5667 13.3331 29.7 13.1332 29.9 12.9998C30.1 12.8665 30.3333 12.7998 30.6 12.7998H36C36.2667 12.7998 36.5 12.8665 36.7 12.9998C36.9 13.1332 37.0333 13.3331 37.1 13.5998L38.5 17.4998C38.5667 17.5665 38.6333 17.5998 38.7 17.5998L42.5 15.7998C42.7 15.7331 42.9333 15.6998 43.2 15.6998C43.4 15.7665 43.6 15.8665 43.8 15.9998L47.6 19.8998C47.8 20.0332 47.9 20.2332 47.9 20.4998C47.9667 20.7665 47.9333 20.9998 47.8 21.1998L46.1 24.7998C46.1667 24.9331 46.2333 25.0665 46.3 25.1998L50.1 26.4998C50.3 26.6332 50.4667 26.7998 50.6 26.9998C50.7333 27.1998 50.8 27.3998 50.8 27.5998V33.0998C50.8 33.2998 50.7333 33.4998 50.6 33.6998C50.4667 33.8998 50.3 34.0331 50.1 34.0998L46.2 35.4998ZM40.7 30.2998C40.7 26.1998 37.4 22.8998 33.3 22.8998C29.2 22.8998 25.9 26.1998 25.9 30.2998C25.9 34.3998 29.2 37.6998 33.3 37.6998C37.4 37.6998 40.7 34.3998 40.7 30.2998Z" fill="#12102C"/>
<defs>
<linearGradient id="paint0_linear_9_8948" x1="64.318" y1="3.72895" x2="64.318" y2="65.3619" gradientUnits="userSpaceOnUse">
<stop stop-color="#A8A3D6"/>
<stop offset="0.291" stop-color="#7C77B2"/>
<stop offset="0.816" stop-color="#2A2A62"/>
<stop offset="1" stop-color="#111031"/>
</linearGradient>
<linearGradient id="paint1_linear_9_8948" x1="72.94" y1="2.76983" x2="59.9523" y2="83.0638" gradientUnits="userSpaceOnUse">
<stop stop-color="#E4E8E9"/>
<stop offset="1" stop-color="#7B76A0"/>
</linearGradient>
<radialGradient id="paint2_radial_9_8948" cx="0" cy="0" r="1" gradientUnits="userSpaceOnUse" gradientTransform="translate(24.582 61.5542) scale(27.933 27.933)">
<stop stop-color="#50C8E8"/>
<stop offset="1" stop-color="#1C172E"/>
</radialGradient>
<radialGradient id="paint3_radial_9_8948" cx="0" cy="0" r="1" gradientUnits="userSpaceOnUse" gradientTransform="translate(36.224 27.2952) scale(44.008 44.008)">
<stop stop-color="#E4E8E9"/>
<stop offset="1" stop-color="#8C94D3"/>
</radialGradient>
<linearGradient id="paint4_linear_9_8948" x1="57.537" y1="7.9469" x2="56.5771" y2="50.7989" gradientUnits="userSpaceOnUse">
<stop stop-color="#7C77B2"/>
<stop offset="1" stop-color="#36335E"/>
</linearGradient>
<linearGradient id="paint5_linear_9_8948" x1="53.18" y1="-4.59117" x2="64.0155" y2="63.2469" gradientUnits="userSpaceOnUse">
<stop stop-color="#8C94D3"/>
<stop offset="1" stop-color="#7C77B2"/>
</linearGradient>
<radialGradient id="paint6_radial_9_8948" cx="0" cy="0" r="1" gradientUnits="userSpaceOnUse" gradientTransform="translate(30.675 52.0548) scale(30.486 30.486)">
<stop stop-color="#1CBECA"/>
<stop offset="1"/>
</radialGradient>
<radialGradient id="paint7_radial_9_8948" cx="0" cy="0" r="1" gradientUnits="userSpaceOnUse" gradientTransform="translate(8.08101 -3.0612) scale(41.126 41.126)">
<stop stop-color="#7C77B2"/>
<stop offset="1" stop-color="#1C172E"/>
</radialGradient>
<radialGradient id="paint8_radial_9_8948" cx="0" cy="0" r="1" gradientUnits="userSpaceOnUse" gradientTransform="translate(18.217 10.1209) scale(52.35 52.3499)">
<stop stop-color="#1CBECA"/>
<stop offset="1" stop-color="#1C172E"/>
</radialGradient>
<radialGradient id="paint9_radial_9_8948" cx="0" cy="0" r="1" gradientUnits="userSpaceOnUse" gradientTransform="translate(34.294 23.3029) scale(27.266 27.266)">
<stop stop-color="#8C94D3"/>
<stop offset="1"/>
</radialGradient>
<radialGradient id="paint10_radial_9_8948" cx="0" cy="0" r="1" gradientUnits="userSpaceOnUse" gradientTransform="translate(10.937 2.60582) scale(48.222 48.222)">
<stop stop-color="#8C94D3"/>
<stop offset="1" stop-color="#130B0D"/>
</radialGradient>
</defs>
</svg>
